<?xml version="1.0" encoding="UTF-8" standalone="no"?>
<!DOCTYPE svg PUBLIC "-//W3C//DTD SVG 1.1//EN" "http://www.w3.org/Graphics/SVG/1.1/DTD/svg11.dtd">
<svg width="100%" height="100%" viewBox="0 0 1866 1345" version="1.1" xmlns="http://www.w3.org/2000/svg" xmlns:xlink="http://www.w3.org/1999/xlink" xml:space="preserve" xmlns:serif="http://www.serif.com/" style="fill-rule:evenodd;clip-rule:evenodd;stroke-linejoin:round;stroke-miterlimit:2;">
    <g transform="matrix(1,0,0,1,-306,-594.947185)">
        <g transform="matrix(1,0,0,1,11.535036,145.652309)">
            <g transform="matrix(18.160584,0,0,17.535459,-12754.53568,-7828.892799)">
                <path d="M718.534,531.58L718.534,496.73L726.384,496.73L726.384,524.58L740.684,524.58L740.684,531.58L718.534,531.58Z" style="fill-rule:nonzero;"/>
                <path d="M755.184,532.13C752.918,532.13 750.984,531.771 749.384,531.055C747.784,530.338 746.484,529.371 745.484,528.155C744.484,526.938 743.759,525.571 743.309,524.055C742.859,522.538 742.634,520.98 742.634,519.38C742.634,517.846 742.859,516.313 743.309,514.78C743.759,513.246 744.459,511.846 745.409,510.58C746.359,509.313 747.609,508.296 749.159,507.53C750.709,506.763 752.584,506.38 754.784,506.38C756.718,506.38 758.418,506.705 759.884,507.355C761.351,508.005 762.576,508.913 763.559,510.08C764.543,511.246 765.284,512.63 765.784,514.23C766.284,515.83 766.534,517.58 766.534,519.48C766.534,519.813 766.526,520.163 766.509,520.53C766.493,520.896 766.451,521.346 766.384,521.88L750.184,521.88C750.384,523.213 751.009,524.18 752.059,524.78C753.109,525.38 754.318,525.68 755.684,525.68C756.884,525.68 758.118,525.471 759.384,525.055C760.651,524.638 761.751,524.063 762.684,523.33L765.884,528.63C764.584,529.496 763.401,530.188 762.334,530.705C761.268,531.221 760.176,531.588 759.059,531.805C757.943,532.021 756.651,532.13 755.184,532.13ZM759.134,518.13C759.201,517.863 759.259,517.596 759.309,517.33C759.359,517.063 759.384,516.813 759.384,516.58C759.384,515.946 759.268,515.388 759.034,514.905C758.801,514.421 758.476,514.013 758.059,513.68C757.643,513.346 757.168,513.088 756.634,512.905C756.101,512.721 755.534,512.63 754.934,512.63C753.834,512.63 752.943,512.83 752.259,513.23C751.576,513.63 751.068,514.113 750.734,514.68C750.401,515.246 750.184,515.796 750.084,516.33L761.634,516.33L759.134,518.13Z" style="fill-rule:nonzero;"/>
                <path d="M786.384,531.58L785.784,528.68L785.784,515.93C785.784,514.763 785.368,513.93 784.534,513.43C783.701,512.93 782.668,512.68 781.434,512.68C780.134,512.68 778.751,512.921 777.284,513.405C775.818,513.888 774.584,514.48 773.584,515.18L770.384,509.88C772.351,508.58 774.259,507.671 776.109,507.155C777.959,506.638 779.951,506.38 782.084,506.38C785.584,506.38 788.326,507.238 790.309,508.955C792.293,510.671 793.284,512.996 793.284,515.93L793.284,531.58L786.384,531.58ZM779.434,532.13C777.668,532.13 776.059,531.788 774.609,531.105C773.159,530.421 772.009,529.446 771.159,528.18C770.309,526.913 769.884,525.446 769.884,523.78C769.884,522.346 770.193,521.096 770.809,520.03C771.426,518.963 772.251,518.146 773.284,517.58C774.051,517.146 774.918,516.83 775.884,516.63C776.851,516.43 777.884,516.33 778.984,516.33L786.384,516.33L786.384,521.88L780.084,521.88C779.684,521.88 779.326,521.913 779.009,521.98C778.693,522.046 778.418,522.163 778.184,522.33C777.951,522.496 777.768,522.705 777.634,522.955C777.501,523.205 777.434,523.48 777.434,523.78C777.434,524.48 777.726,525.038 778.309,525.455C778.893,525.871 779.668,526.08 780.634,526.08C781.568,526.08 782.426,525.888 783.209,525.505C783.993,525.121 784.618,524.596 785.084,523.93C785.551,523.263 785.784,522.496 785.784,521.63L787.384,525.88C786.751,527.58 785.993,528.88 785.109,529.78C784.226,530.68 783.293,531.296 782.309,531.63C781.326,531.963 780.368,532.13 779.434,532.13Z" style="fill-rule:nonzero;"/>
                <path d="M807.284,532.13C805.151,532.13 803.334,531.571 801.834,530.455C800.334,529.338 799.193,527.805 798.409,525.855C797.626,523.905 797.234,521.696 797.234,519.23C797.234,516.463 797.684,514.13 798.584,512.23C799.484,510.33 800.701,508.88 802.234,507.88C803.768,506.88 805.451,506.38 807.284,506.38C808.451,506.38 809.584,506.63 810.684,507.13C811.784,507.63 812.734,508.446 813.534,509.58C814.334,510.713 814.868,512.263 815.134,514.23L813.784,513.13L813.784,496.73L821.284,496.73L821.284,531.58L813.784,531.58L813.784,525.48L815.334,523.98C814.934,526.28 814.284,528.013 813.384,529.18C812.484,530.346 811.493,531.13 810.409,531.53C809.326,531.93 808.284,532.13 807.284,532.13ZM809.634,525.23C810.668,525.23 811.543,524.988 812.259,524.505C812.976,524.021 813.526,523.33 813.909,522.43C814.293,521.53 814.484,520.463 814.484,519.23C814.484,517.996 814.293,516.938 813.909,516.055C813.526,515.171 812.976,514.488 812.259,514.005C811.543,513.521 810.668,513.28 809.634,513.28C808.634,513.28 807.768,513.513 807.034,513.98C806.301,514.446 805.743,515.121 805.359,516.005C804.976,516.888 804.784,517.963 804.784,519.23C804.784,520.496 804.976,521.58 805.359,522.48C805.743,523.38 806.301,524.063 807.034,524.53C807.768,524.996 808.634,525.23 809.634,525.23Z" style="fill-rule:nonzero;"/>
            </g>
            <g transform="matrix(1.008183,0,0,0.918355,-5.696786,59.806615)">
                <path d="M1717.447,555.827C1725.586,546.112 1734.623,539.231 1744.513,535.119C1756.121,530.293 1767.731,527.892 1779.341,527.892C1801.793,527.892 1821.012,534.275 1837.036,546.902C1852.975,559.462 1865.191,576.647 1873.626,598.507C1881.919,620 1886.098,644.342 1886.098,671.546C1886.098,701.47 1881.336,727.039 1871.936,748.281C1862.392,769.848 1849.523,786.26 1833.405,797.589C1817.223,808.962 1799.205,814.664 1779.341,814.664C1766.568,814.664 1754.211,811.754 1742.273,805.922C1732.95,801.368 1724.669,794.755 1717.447,786.056L1717.447,918.441L1639.559,918.441L1639.559,533.47L1717.447,533.47L1717.447,555.827ZM1716.682,766.304C1717.613,767.971 1718.589,769.573 1719.61,771.111C1727.022,782.267 1735.945,790.431 1746.42,795.547C1757.023,800.727 1767.996,803.322 1779.341,803.322C1797.179,803.322 1813.368,798.23 1827.9,788.017C1842.496,777.758 1854.077,762.827 1862.719,743.297C1871.505,723.442 1875.837,699.516 1875.837,671.546C1875.837,646.005 1871.975,623.137 1864.188,602.958C1856.543,583.145 1845.526,567.522 1831.081,556.139C1816.72,544.823 1799.462,539.234 1779.341,539.234C1768.934,539.234 1758.53,541.409 1748.125,545.735C1737.929,549.975 1728.855,557.728 1720.826,568.884C1719.377,570.899 1717.994,573.081 1716.678,575.431L1707.186,572.443L1707.186,544.813L1649.82,544.813L1649.82,907.098L1707.186,907.098L1707.186,769.282L1716.682,766.304ZM1759.368,747.222C1747.42,747.222 1737.043,744.005 1728.209,737.685C1719.36,731.356 1712.553,722.472 1707.838,710.986C1703.282,699.887 1700.954,686.748 1700.954,671.546C1700.954,656.051 1703.285,642.77 1707.838,631.679C1712.553,620.194 1719.36,611.308 1728.208,604.976C1737.042,598.653 1747.419,595.434 1759.368,595.434C1771.594,595.434 1782.044,598.588 1790.755,604.745C1799.505,610.93 1806.296,619.818 1811.054,631.476C1815.639,642.712 1817.984,656.061 1817.984,671.546C1817.984,686.738 1815.642,699.946 1811.054,711.188C1806.295,722.847 1799.505,731.735 1790.754,737.916C1782.043,744.07 1771.593,747.222 1759.368,747.222ZM1759.368,735.88C1769.428,735.88 1778.061,733.423 1785.229,728.359C1792.358,723.322 1797.825,716.022 1801.701,706.524C1805.748,696.609 1807.723,684.943 1807.723,671.546C1807.723,657.872 1805.75,646.063 1801.701,636.141C1797.824,626.642 1792.357,619.34 1785.228,614.301C1778.06,609.235 1769.428,606.777 1759.368,606.777C1749.568,606.777 1741.03,609.312 1733.784,614.497C1726.552,619.673 1721.035,626.979 1717.181,636.366C1713.166,646.147 1711.214,657.882 1711.214,671.546C1711.214,684.933 1713.169,696.525 1717.181,706.299C1721.035,715.686 1726.551,722.989 1733.783,728.162C1741.029,733.346 1749.567,735.88 1759.368,735.88ZM2070.691,635.747C2070.632,624.018 2067.195,615.321 2059.942,609.876C2052.024,603.933 2041.71,601.098 2029.064,601.098C2016.683,601.098 2003.833,603.669 1990.508,608.772C1977.185,613.873 1965.682,620.618 1956.018,629.044L1951.691,632.817L1914.464,572.186L1918.502,568.96C1937.261,553.977 1955.965,543.405 1974.592,537.196C1993.174,531.001 2013.241,527.892 2034.795,527.892C2070.326,527.892 2098.032,537.637 2118.031,556.717C2138.322,576.075 2148.58,602.487 2148.58,636.058L2148.58,809.086L2076.82,809.086L2073.205,785.079C2064.29,795.571 2054.512,803.05 2043.914,807.582C2032.862,812.307 2021.584,814.664 2010.08,814.664C1991.621,814.664 1974.976,810.841 1960.131,803.257C1945.036,795.545 1933.145,784.565 1924.425,770.362C1915.655,756.076 1911.232,739.548 1911.232,720.754C1911.232,704.42 1914.49,690.266 1920.891,678.261C1927.334,666.177 1935.902,656.901 1946.555,650.423C1954.781,645.21 1964.1,641.434 1974.522,639.128C1984.69,636.878 1995.522,635.747 2007.021,635.747L2070.691,635.747ZM2081.471,770.899L2085.514,797.743L2138.319,797.743L2138.319,636.058C2138.319,606.162 2129.397,582.543 2111.328,565.304C2092.966,547.787 2067.417,539.234 2034.795,539.234C2014.303,539.234 1995.221,542.166 1977.554,548.055C1961.279,553.481 1944.959,562.467 1928.579,574.977L1954.069,616.493C1963.613,609 1974.636,602.845 1987.15,598.054C2001.634,592.508 2015.607,589.755 2029.064,589.755C2044.1,589.755 2056.292,593.426 2065.706,600.493C2075.721,608.011 2080.953,619.788 2080.953,636.058L2080.953,647.09L2007.021,647.09C1996.235,647.09 1986.073,648.139 1976.536,650.25C1967.261,652.303 1958.959,655.634 1951.599,660.301L1951.557,660.326C1942.477,665.84 1935.209,673.745 1929.73,684.02C1924.201,694.39 1921.493,706.645 1921.493,720.754C1921.493,737.127 1925.275,751.547 1932.915,763.992C1940.605,776.518 1951.123,786.16 1964.435,792.96C1977.997,799.889 1993.216,803.322 2010.08,803.322C2020.326,803.322 2030.369,801.212 2040.212,797.003C2049.956,792.836 2058.861,785.749 2066.975,775.814C2068.804,773.575 2070.554,771.152 2072.227,768.547L2081.471,770.899ZM2080.953,695.897C2080.933,707.492 2078.095,717.791 2072.489,726.809C2066.962,735.702 2059.604,742.71 2050.39,747.804C2041.29,752.835 2031.285,755.372 2020.368,755.372C2008.224,755.372 1998.548,752.296 1991.259,746.469C1983.308,740.111 1979.346,731.571 1979.346,720.863C1979.346,715.871 1980.341,711.377 1982.273,707.366C1984.197,703.374 1986.835,700.046 1990.209,697.369L1990.227,697.355C1993.825,694.555 1998.041,692.618 2002.899,691.6C2007.287,690.68 2011.956,690.215 2016.907,690.215L2080.962,690.215L2080.953,695.897ZM2070.39,701.557L2016.907,701.557C2012.632,701.557 2008.599,701.949 2004.811,702.744C2001.5,703.438 1998.607,704.71 1996.146,706.62C1994.107,708.244 1992.5,710.269 1991.329,712.699C1990.162,715.121 1989.607,717.848 1989.607,720.863C1989.607,727.733 1992.171,733.199 1997.273,737.278C2003.037,741.887 2010.762,744.029 2020.368,744.029C2029.613,744.029 2038.094,741.92 2045.8,737.66C2053.393,733.462 2059.478,727.714 2064.033,720.386C2067.537,714.748 2069.647,708.469 2070.39,701.557ZM409.853,740.899L386.161,809.086L297.725,809.086L442.983,424.115L502.22,424.115L647.063,809.086L558.724,809.086L535.265,740.899L409.853,740.899ZM542.341,729.556L565.799,797.743L631.683,797.743L495.375,435.458L449.82,435.458L313.123,797.743L379.111,797.743L402.803,729.556L542.341,729.556ZM422.664,672.393L468.104,541.614L477.688,541.631L522.675,672.393L422.664,672.393ZM507.795,661.05L472.869,559.533L437.597,661.05L507.795,661.05ZM743.667,556.887L743.722,556.823C752.744,546.391 763.044,538.956 774.602,534.483C785.973,530.083 797.38,527.892 808.821,527.892C838.392,527.892 861.394,537.052 877.955,554.973C894.562,572.944 903.026,597.642 903.026,629.198L903.026,809.086L824.652,809.086L824.652,656.537C824.652,637.661 821.872,623.821 815.718,615.174C809.902,607.003 800.574,603.242 787.967,603.242C778.024,603.242 769.775,605.644 763.278,610.682C756.804,615.702 752.06,623.585 748.836,634.169C745.354,645.602 743.667,660.352 743.667,678.406L743.667,809.086L665.285,809.086L665.285,533.47L743.667,533.47L743.667,556.887ZM733.406,573.842L733.406,544.813L675.546,544.813L675.546,797.743L733.406,797.743L733.406,678.406C733.406,658.869 735.344,642.922 739.112,630.55C743.138,617.331 749.3,607.666 757.387,601.396C765.451,595.143 775.625,591.899 787.967,591.899C804.36,591.899 816.219,597.535 823.781,608.16C831.005,618.31 834.913,634.38 834.913,656.537L834.913,797.743L892.766,797.743L892.766,629.198C892.766,601.14 885.543,579.057 870.778,563.078C855.965,547.049 835.271,539.234 808.821,539.234C798.512,539.234 788.237,541.225 777.992,545.189C767.934,549.081 758.99,555.583 751.139,564.662C748.102,568.172 745.377,572.197 742.953,576.728L733.406,573.842ZM966.122,602.061L923.612,602.061L923.612,533.47L966.122,533.47L966.122,477.395L1044.99,431.545L1044.99,533.47L1096.993,533.47L1096.993,602.061L1044.99,602.061L1044.99,701.783C1044.99,716.11 1046.565,726.953 1050.035,734.251C1052.983,740.449 1058.955,743.066 1067.541,743.066C1070.586,743.066 1073.996,742.71 1077.771,742.016C1081.701,741.294 1085.948,740.243 1090.514,738.868L1096.993,736.917L1096.993,804.731L1093.589,806.075C1086.253,808.973 1078.9,811.127 1071.531,812.541C1064.162,813.955 1056.571,814.664 1048.758,814.664C1034.677,814.664 1021.378,811.741 1008.855,805.911C995.997,799.924 985.636,790.149 977.8,776.552C970.111,763.209 966.122,745.244 966.122,722.58L966.122,602.061ZM976.382,722.58C976.382,742.655 979.643,758.639 986.454,770.458C993.117,782.021 1001.903,790.366 1012.838,795.457C1024.11,800.706 1036.084,803.322 1048.758,803.322C1055.969,803.322 1062.975,802.671 1069.776,801.366C1075.439,800.279 1081.091,798.717 1086.732,796.68L1086.732,751.609C1084.203,752.247 1081.777,752.778 1079.454,753.205C1075.058,754.014 1071.087,754.409 1067.541,754.409C1054.24,754.409 1045.52,749.131 1040.954,739.529C1036.912,731.03 1034.73,718.469 1034.73,701.783L1034.73,590.718L1086.732,590.718L1086.732,544.813L1034.73,544.813L1034.73,450.325L976.382,484.246L976.382,544.813L933.872,544.813L933.872,590.718L976.382,590.718L976.382,722.58ZM1131.714,533.47L1209.694,533.47L1209.694,809.086L1131.714,809.086L1131.714,533.47ZM1141.974,797.743L1199.434,797.743L1199.434,544.813L1141.974,544.813L1141.974,797.743ZM1130.725,424.115L1211.671,424.115L1211.671,506.217L1130.725,506.217L1130.725,424.115ZM1140.986,494.874L1201.411,494.874L1201.411,435.458L1140.986,435.458L1140.986,494.874ZM1370.746,814.664C1349.687,814.664 1331.328,810.594 1315.651,802.559C1299.887,794.479 1286.737,783.561 1276.182,769.832C1265.669,756.158 1257.835,740.753 1252.682,723.615C1247.565,706.597 1245.005,689.062 1245.005,671.01C1245.005,653.031 1247.564,635.533 1252.682,618.514C1257.839,601.364 1265.68,586.022 1276.2,572.487C1286.75,558.913 1299.894,548.074 1315.651,539.997C1331.328,531.961 1349.687,527.892 1370.746,527.892C1396.989,527.892 1419.731,534.734 1439,548.294C1458.375,561.929 1472.863,582.693 1482.322,610.706L1484.093,615.951L1415.128,645.537L1413.43,639.878C1410.166,628.998 1405.149,620.061 1398.317,613.11C1391.717,606.395 1382.486,603.242 1370.746,603.242C1359.653,603.242 1350.603,606.287 1343.676,612.653C1336.608,619.148 1331.492,627.508 1328.29,637.704C1324.952,648.331 1323.287,659.434 1323.287,671.01C1323.287,682.6 1324.956,693.8 1328.298,704.61C1331.498,714.96 1336.604,723.382 1343.666,729.839C1350.596,736.175 1359.649,739.205 1370.746,739.205C1382.49,739.205 1391.723,736.067 1398.326,729.382C1405.154,722.469 1410.165,713.519 1413.427,702.579L1415.119,696.906L1484.093,726.496L1482.322,731.741C1472.864,759.757 1458.378,780.539 1439.005,794.208C1419.734,807.804 1396.991,814.664 1370.746,814.664ZM1370.746,803.322C1394.858,803.322 1415.781,797.138 1433.485,784.646C1449.865,773.089 1462.284,755.837 1470.855,732.984L1421.313,711.73C1417.491,722.129 1412.125,730.792 1405.256,737.747C1396.962,746.145 1385.499,750.548 1370.746,750.548C1356.932,750.548 1345.752,746.466 1337.127,738.58C1328.634,730.815 1322.438,720.726 1318.589,708.278C1314.882,696.288 1313.026,683.866 1313.026,671.01C1313.026,658.14 1314.886,645.798 1318.597,633.984C1322.443,621.739 1328.629,611.73 1337.117,603.931C1345.745,596.001 1356.928,591.899 1370.746,591.899C1385.503,591.899 1396.968,596.323 1405.265,604.764C1412.126,611.744 1417.485,620.388 1421.304,630.721L1470.855,609.463C1462.285,586.621 1449.868,569.388 1433.49,557.863C1415.785,545.403 1394.86,539.234 1370.746,539.234C1351.344,539.234 1334.411,542.884 1319.967,550.288C1305.602,557.651 1293.601,567.505 1283.982,579.879C1274.334,592.292 1267.148,606.364 1262.418,622.092C1257.65,637.951 1255.266,654.257 1255.266,671.01C1255.266,687.834 1257.649,704.177 1262.418,720.037C1267.151,735.777 1274.345,749.927 1284,762.486C1293.614,774.991 1305.609,784.909 1319.967,792.268C1334.411,799.672 1351.344,803.322 1370.746,803.322ZM1514.899,533.47L1592.879,533.47L1592.879,809.086L1514.899,809.086L1514.899,533.47ZM1525.159,797.743L1582.619,797.743L1582.619,544.813L1525.159,544.813L1525.159,797.743ZM1513.91,424.115L1594.856,424.115L1594.856,506.217L1513.91,506.217L1513.91,424.115ZM1524.171,494.874L1584.596,494.874L1584.596,435.458L1524.171,435.458L1524.171,494.874Z"/>
            </g>
            <g transform="matrix(0.438869,0,0,0.438869,-183.816129,890.715541)">
                <path d="M1089.805,1810.71L1113.625,1641.297L1227.377,1641.297L1222.759,1675.326L1147.167,1675.326L1142.792,1706.437L1214.738,1706.437L1209.876,1740.466L1137.931,1740.466L1132.827,1776.682L1208.418,1776.682L1203.557,1810.71L1089.805,1810.71Z" style="fill-rule:nonzero;"/>
                <path d="M1218.141,1810.71L1266.266,1750.188L1235.641,1690.882L1277.447,1690.882L1293.489,1726.611L1319.01,1690.882L1363.49,1690.882L1314.878,1750.188L1345.99,1810.71L1304.427,1810.71L1288.385,1774.008L1262.377,1810.71L1218.141,1810.71Z" style="fill-rule:nonzero;"/>
                <path d="M1356.198,1860.294L1380.018,1690.882L1414.047,1690.882L1412.588,1720.535L1403.595,1726.854C1407.322,1715.512 1411.616,1707.126 1416.477,1701.698C1421.338,1696.269 1426.402,1692.664 1431.668,1690.882C1436.935,1689.099 1441.836,1688.208 1446.374,1688.208C1455.772,1688.208 1463.631,1690.355 1469.95,1694.649C1476.27,1698.943 1481.05,1704.939 1484.291,1712.635C1487.532,1720.332 1489.152,1729.204 1489.152,1739.25C1489.152,1748.649 1487.856,1757.763 1485.263,1766.595C1482.67,1775.426 1478.944,1783.366 1474.082,1790.414C1469.221,1797.463 1463.307,1803.054 1456.339,1807.186C1449.371,1811.318 1441.512,1813.384 1432.762,1813.384C1426.929,1813.384 1421.379,1812.087 1416.113,1809.495C1410.846,1806.902 1406.552,1802.73 1403.23,1796.977C1399.909,1791.225 1398.167,1783.649 1398.005,1774.251L1403.595,1780.571L1392.657,1860.294L1356.198,1860.294ZM1424.255,1779.841C1428.468,1779.841 1432.276,1779.031 1435.679,1777.411C1439.082,1775.79 1442.039,1773.481 1444.551,1770.484C1447.062,1767.486 1448.966,1763.84 1450.263,1759.546C1451.559,1755.252 1452.207,1750.431 1452.207,1745.084C1452.207,1740.061 1451.437,1735.807 1449.898,1732.323C1448.359,1728.839 1446.09,1726.206 1443.092,1724.424C1440.095,1722.641 1436.408,1721.75 1432.033,1721.75C1427.82,1721.75 1424.012,1722.56 1420.609,1724.181C1417.206,1725.801 1414.249,1728.11 1411.738,1731.108C1409.226,1734.106 1407.322,1737.752 1406.026,1742.046C1404.729,1746.34 1404.081,1751.16 1404.081,1756.508C1404.081,1761.369 1404.851,1765.541 1406.39,1769.025C1407.93,1772.509 1410.239,1775.183 1413.317,1777.046C1416.396,1778.91 1420.042,1779.841 1424.255,1779.841Z" style="fill-rule:nonzero;"/>
                <path d="M1558.91,1813.384C1545.623,1813.384 1534.969,1810.913 1526.948,1805.97C1518.927,1801.028 1513.134,1794.547 1509.569,1786.526C1506.004,1778.505 1504.222,1769.876 1504.222,1760.64C1504.222,1751.727 1505.64,1742.977 1508.475,1734.389C1511.311,1725.801 1515.524,1718.023 1521.114,1711.056C1526.705,1704.088 1533.632,1698.538 1541.896,1694.406C1550.16,1690.274 1559.801,1688.208 1570.82,1688.208C1582.163,1688.208 1591.561,1690.436 1599.015,1694.892C1606.469,1699.348 1612.1,1705.506 1615.908,1713.365C1619.716,1721.224 1621.62,1730.338 1621.62,1740.709C1621.62,1745.246 1621.336,1749.297 1620.769,1752.862C1620.202,1756.427 1619.432,1760.316 1618.46,1764.529L1539.465,1764.529C1539.465,1765.339 1539.506,1766.109 1539.587,1766.838C1539.668,1767.567 1539.789,1768.337 1539.952,1769.147C1541.086,1773.684 1543.678,1776.965 1547.729,1778.991C1551.78,1781.016 1556.48,1782.029 1561.827,1782.029C1567.012,1782.029 1572.4,1781.219 1577.99,1779.598C1583.581,1777.978 1588.888,1775.871 1593.911,1773.279L1609.224,1798.314C1602.742,1802.365 1595.248,1805.889 1586.741,1808.887C1578.233,1811.885 1568.957,1813.384 1558.91,1813.384ZM1587.105,1744.355C1587.591,1742.734 1587.956,1741.114 1588.199,1739.493C1588.442,1737.873 1588.563,1736.334 1588.563,1734.875C1588.563,1731.797 1587.996,1728.961 1586.862,1726.368C1585.728,1723.776 1583.864,1721.629 1581.272,1719.927C1578.679,1718.226 1575.114,1717.375 1570.577,1717.375C1565.068,1717.375 1560.409,1718.509 1556.601,1720.778C1552.793,1723.046 1549.795,1725.761 1547.608,1728.92C1545.42,1732.08 1543.922,1734.956 1543.111,1737.549L1599.501,1737.549L1587.105,1744.355Z" style="fill-rule:nonzero;"/>
                <path d="M1633.773,1810.71L1650.787,1690.882L1685.301,1690.882L1683.114,1723.695L1678.739,1722.722C1679.873,1715.917 1682.385,1709.921 1686.273,1704.736C1690.162,1699.551 1694.781,1695.5 1700.128,1692.583C1705.475,1689.666 1710.822,1688.208 1716.17,1688.208C1720.869,1688.208 1725.082,1688.897 1728.809,1690.274C1732.536,1691.651 1736.425,1693.717 1740.476,1696.472L1719.816,1728.556C1718.357,1727.422 1716.291,1726.49 1713.618,1725.761C1710.944,1725.031 1708.392,1724.667 1705.961,1724.667C1699.642,1724.667 1694.537,1726.49 1690.649,1730.136C1686.76,1733.782 1683.802,1738.521 1681.777,1744.355C1679.751,1750.188 1678.252,1756.508 1677.28,1763.313L1670.475,1810.71L1633.773,1810.71Z" style="fill-rule:nonzero;"/>
                <path d="M1740.233,1810.71L1757.004,1690.882L1793.706,1690.882L1776.935,1810.71L1740.233,1810.71ZM1759.191,1674.353L1763.809,1641.297L1801.241,1641.297L1796.623,1674.353L1759.191,1674.353Z" style="fill-rule:nonzero;"/>
                <path d="M1860.547,1813.384C1847.26,1813.384 1836.606,1810.913 1828.585,1805.97C1820.564,1801.028 1814.771,1794.547 1811.206,1786.526C1807.641,1778.505 1805.859,1769.876 1805.859,1760.64C1805.859,1751.727 1807.277,1742.977 1810.112,1734.389C1812.948,1725.801 1817.161,1718.023 1822.751,1711.056C1828.342,1704.088 1835.269,1698.538 1843.533,1694.406C1851.797,1690.274 1861.438,1688.208 1872.457,1688.208C1883.8,1688.208 1893.198,1690.436 1900.652,1694.892C1908.106,1699.348 1913.737,1705.506 1917.545,1713.365C1921.353,1721.224 1923.257,1730.338 1923.257,1740.709C1923.257,1745.246 1922.973,1749.297 1922.406,1752.862C1921.839,1756.427 1921.069,1760.316 1920.097,1764.529L1841.102,1764.529C1841.102,1765.339 1841.143,1766.109 1841.224,1766.838C1841.305,1767.567 1841.427,1768.337 1841.589,1769.147C1842.723,1773.684 1845.316,1776.965 1849.367,1778.991C1853.417,1781.016 1858.117,1782.029 1863.464,1782.029C1868.649,1782.029 1874.037,1781.219 1879.627,1779.598C1885.218,1777.978 1890.525,1775.871 1895.548,1773.279L1910.861,1798.314C1904.379,1802.365 1896.885,1805.889 1888.378,1808.887C1879.87,1811.885 1870.594,1813.384 1860.547,1813.384ZM1888.742,1744.355C1889.228,1742.734 1889.593,1741.114 1889.836,1739.493C1890.079,1737.873 1890.201,1736.334 1890.201,1734.875C1890.201,1731.797 1889.633,1728.961 1888.499,1726.368C1887.365,1723.776 1885.501,1721.629 1882.909,1719.927C1880.316,1718.226 1876.751,1717.375 1872.214,1717.375C1866.705,1717.375 1862.046,1718.509 1858.238,1720.778C1854.43,1723.046 1851.433,1725.761 1849.245,1728.92C1847.057,1732.08 1845.559,1734.956 1844.748,1737.549L1901.138,1737.549L1888.742,1744.355Z" style="fill-rule:nonzero;"/>
                <path d="M1935.41,1810.71L1952.424,1690.882L1986.695,1690.882L1984.994,1719.076L1980.133,1718.104C1983.211,1710.002 1987.06,1703.804 1991.678,1699.51C1996.296,1695.216 2001.238,1692.259 2006.505,1690.638C2011.771,1689.018 2016.754,1688.208 2021.453,1688.208C2034.416,1688.208 2044.422,1691.489 2051.471,1698.052C2058.519,1704.614 2062.044,1713.405 2062.044,1724.424L2062.044,1728.07C2062.044,1729.366 2061.882,1730.662 2061.558,1731.959L2050.377,1810.71L2013.675,1810.71L2023.154,1743.626C2023.478,1741.843 2023.681,1740.263 2023.762,1738.886C2023.843,1737.509 2023.883,1736.253 2023.883,1735.118C2023.883,1729.771 2022.749,1725.923 2020.481,1723.573C2018.212,1721.224 2014.566,1720.049 2009.543,1720.049C2001.279,1720.049 1994.716,1723.006 1989.855,1728.92C1984.994,1734.835 1981.672,1743.788 1979.89,1755.778L1972.112,1810.71L1935.41,1810.71Z" style="fill-rule:nonzero;"/>
                <path d="M2134.232,1813.384C2121.107,1813.384 2110.413,1810.872 2102.149,1805.849C2093.885,1800.826 2087.808,1794.182 2083.919,1785.918C2080.03,1777.654 2078.086,1768.823 2078.086,1759.424C2078.086,1750.188 2079.625,1741.316 2082.704,1732.809C2085.783,1724.302 2090.279,1716.686 2096.194,1709.962C2102.108,1703.237 2109.238,1697.93 2117.583,1694.041C2125.928,1690.152 2135.286,1688.208 2145.656,1688.208C2158.781,1688.208 2169.679,1691.368 2178.348,1697.687C2187.017,1704.007 2192.729,1713.324 2195.483,1725.639L2162.67,1736.334C2161.698,1731.31 2159.916,1727.341 2157.323,1724.424C2154.73,1721.507 2150.598,1720.049 2144.927,1720.049C2139.904,1720.049 2135.448,1721.224 2131.559,1723.573C2127.67,1725.923 2124.47,1729.042 2121.958,1732.931C2119.446,1736.82 2117.542,1741.114 2116.246,1745.813C2114.95,1750.512 2114.302,1755.13 2114.302,1759.667C2114.302,1763.556 2115.071,1767.162 2116.611,1770.484C2118.15,1773.805 2120.419,1776.479 2123.416,1778.505C2126.414,1780.53 2130.181,1781.543 2134.719,1781.543C2141.362,1781.543 2146.426,1779.801 2149.91,1776.317C2153.394,1772.833 2156.189,1768.499 2158.295,1763.313L2188.678,1777.897C2182.52,1790.212 2174.661,1799.205 2165.101,1804.877C2155.541,1810.548 2145.251,1813.384 2134.232,1813.384Z" style="fill-rule:nonzero;"/>
                <path d="M2203.018,1810.71L2219.789,1690.882L2256.491,1690.882L2239.72,1810.71L2203.018,1810.71ZM2221.977,1674.353L2226.595,1641.297L2264.026,1641.297L2259.408,1674.353L2221.977,1674.353Z" style="fill-rule:nonzero;"/>
                <path d="M2265.971,1810.71L2282.985,1690.882L2317.256,1690.882L2315.555,1719.076L2310.694,1718.104C2313.773,1710.002 2317.621,1703.804 2322.239,1699.51C2326.857,1695.216 2331.799,1692.259 2337.066,1690.638C2342.332,1689.018 2347.315,1688.208 2352.014,1688.208C2364.977,1688.208 2374.983,1691.489 2382.032,1698.052C2389.081,1704.614 2392.605,1713.405 2392.605,1724.424L2392.605,1728.07C2392.605,1729.366 2392.443,1730.662 2392.119,1731.959L2380.938,1810.71L2344.236,1810.71L2353.715,1743.626C2354.039,1741.843 2354.242,1740.263 2354.323,1738.886C2354.404,1737.509 2354.445,1736.253 2354.445,1735.118C2354.445,1729.771 2353.31,1725.923 2351.042,1723.573C2348.773,1721.224 2345.127,1720.049 2340.104,1720.049C2331.84,1720.049 2325.277,1723.006 2320.416,1728.92C2315.555,1734.835 2312.233,1743.788 2310.451,1755.778L2302.673,1810.71L2265.971,1810.71Z" style="fill-rule:nonzero;"/>
                <path d="M2453.856,1862.968C2443.809,1862.968 2435.383,1861.671 2428.578,1859.079C2421.772,1856.486 2416.222,1853.164 2411.928,1849.113C2407.634,1845.062 2404.029,1840.93 2401.112,1836.717L2431.494,1816.057C2433.601,1819.622 2436.275,1823.106 2439.515,1826.509C2442.756,1829.912 2447.617,1831.613 2454.099,1831.613C2457.826,1831.613 2461.715,1830.965 2465.766,1829.669C2469.817,1828.372 2473.422,1825.861 2476.582,1822.134C2479.742,1818.407 2481.727,1813.06 2482.537,1806.092L2485.211,1784.46L2490.072,1789.078C2484.725,1797.018 2479.094,1802.243 2473.179,1804.755C2467.265,1807.267 2460.662,1808.522 2453.37,1808.522C2444.134,1808.522 2436.234,1806.335 2429.671,1801.96C2423.109,1797.585 2418.126,1791.589 2414.723,1783.973C2411.32,1776.358 2409.619,1767.769 2409.619,1758.209C2409.619,1749.621 2411.037,1741.195 2413.873,1732.931C2416.708,1724.667 2420.759,1717.173 2426.026,1710.448C2431.292,1703.723 2437.53,1698.335 2444.741,1694.284C2451.952,1690.233 2459.932,1688.208 2468.683,1688.208C2477.757,1688.208 2484.927,1690.071 2490.193,1693.798C2495.46,1697.525 2498.66,1702.629 2499.794,1709.111L2495.905,1713L2501.253,1690.882L2535.281,1690.882L2518.753,1808.036C2516.97,1820.837 2513.122,1831.289 2507.208,1839.391C2501.293,1847.493 2493.758,1853.448 2484.603,1857.256C2475.448,1861.064 2465.199,1862.968 2453.856,1862.968ZM2468.196,1776.196C2472.409,1776.196 2476.136,1775.345 2479.377,1773.643C2482.618,1771.942 2485.332,1769.633 2487.52,1766.716C2489.707,1763.799 2491.368,1760.397 2492.502,1756.508C2493.637,1752.619 2494.204,1748.406 2494.204,1743.869C2494.204,1739.331 2493.475,1735.442 2492.016,1732.202C2490.558,1728.961 2488.33,1726.409 2485.332,1724.545C2482.334,1722.682 2478.648,1721.75 2474.273,1721.75C2470.222,1721.75 2466.495,1722.52 2463.092,1724.059C2459.689,1725.599 2456.773,1727.786 2454.342,1730.622C2451.911,1733.458 2450.048,1736.82 2448.752,1740.709C2447.455,1744.598 2446.807,1748.892 2446.807,1753.591C2446.807,1757.966 2447.658,1761.855 2449.359,1765.258C2451.061,1768.661 2453.532,1771.334 2456.773,1773.279C2460.013,1775.223 2463.821,1776.196 2468.196,1776.196Z" style="fill-rule:nonzero;"/>
                <path d="M2658.998,1813.384C2652.517,1813.384 2646.481,1812.29 2640.89,1810.102C2635.3,1807.915 2630.763,1804.39 2627.279,1799.529C2623.795,1794.668 2622.053,1788.186 2622.053,1780.084C2622.053,1778.464 2622.134,1776.722 2622.296,1774.859C2622.458,1772.995 2622.782,1770.281 2623.269,1766.716L2637.366,1665.846L2677.228,1646.159L2660.943,1763.07C2660.781,1764.691 2660.578,1766.473 2660.335,1768.418C2660.092,1770.362 2659.971,1772.226 2659.971,1774.008C2659.971,1777.087 2660.7,1779.436 2662.158,1781.057C2663.616,1782.677 2666.209,1783.487 2669.936,1783.487C2672.205,1783.487 2674.392,1783.244 2676.499,1782.758C2678.605,1782.272 2680.955,1781.705 2683.547,1781.057L2679.415,1810.224C2675.85,1811.358 2672.367,1812.168 2668.964,1812.654C2665.561,1813.141 2662.239,1813.384 2658.998,1813.384ZM2610.143,1719.32L2614.275,1690.882L2696.186,1690.882L2692.297,1719.32L2610.143,1719.32Z" style="fill-rule:nonzero;"/>
                <path d="M2700.805,1810.71L2724.624,1641.297L2761.326,1641.297L2750.389,1719.076L2745.528,1718.104C2748.606,1710.002 2752.455,1703.804 2757.073,1699.51C2761.691,1695.216 2766.633,1692.259 2771.9,1690.638C2777.166,1689.018 2782.149,1688.208 2786.848,1688.208C2799.811,1688.208 2809.817,1691.489 2816.866,1698.052C2823.914,1704.614 2827.439,1713.405 2827.439,1724.424C2827.439,1725.558 2827.398,1726.773 2827.317,1728.07C2827.236,1729.366 2827.115,1730.662 2826.953,1731.959L2815.772,1810.71L2779.07,1810.71L2788.549,1743.626C2788.873,1741.843 2789.076,1740.263 2789.157,1738.886C2789.238,1737.509 2789.278,1736.253 2789.278,1735.118C2789.278,1729.771 2788.144,1725.923 2785.875,1723.573C2783.607,1721.224 2779.961,1720.049 2774.938,1720.049C2766.674,1720.049 2760.111,1723.006 2755.25,1728.92C2750.389,1734.835 2747.067,1743.788 2745.284,1755.778L2737.507,1810.71L2700.805,1810.71Z" style="fill-rule:nonzero;"/>
                <path d="M2898.169,1813.384C2884.882,1813.384 2874.228,1810.913 2866.207,1805.97C2858.186,1801.028 2852.393,1794.547 2848.828,1786.526C2845.263,1778.505 2843.481,1769.876 2843.481,1760.64C2843.481,1751.727 2844.898,1742.977 2847.734,1734.389C2850.57,1725.801 2854.783,1718.023 2860.373,1711.056C2865.964,1704.088 2872.891,1698.538 2881.155,1694.406C2889.419,1690.274 2899.06,1688.208 2910.079,1688.208C2921.422,1688.208 2930.82,1690.436 2938.274,1694.892C2945.728,1699.348 2951.359,1705.506 2955.167,1713.365C2958.974,1721.224 2960.878,1730.338 2960.878,1740.709C2960.878,1745.246 2960.595,1749.297 2960.028,1752.862C2959.461,1756.427 2958.691,1760.316 2957.719,1764.529L2878.724,1764.529C2878.724,1765.339 2878.765,1766.109 2878.846,1766.838C2878.927,1767.567 2879.048,1768.337 2879.21,1769.147C2880.345,1773.684 2882.937,1776.965 2886.988,1778.991C2891.039,1781.016 2895.738,1782.029 2901.086,1782.029C2906.271,1782.029 2911.659,1781.219 2917.249,1779.598C2922.84,1777.978 2928.146,1775.871 2933.17,1773.279L2948.482,1798.314C2942.001,1802.365 2934.506,1805.889 2925.999,1808.887C2917.492,1811.885 2908.215,1813.384 2898.169,1813.384ZM2926.364,1744.355C2926.85,1742.734 2927.215,1741.114 2927.458,1739.493C2927.701,1737.873 2927.822,1736.334 2927.822,1734.875C2927.822,1731.797 2927.255,1728.961 2926.121,1726.368C2924.987,1723.776 2923.123,1721.629 2920.531,1719.927C2917.938,1718.226 2914.373,1717.375 2909.836,1717.375C2904.327,1717.375 2899.668,1718.509 2895.86,1720.778C2892.052,1723.046 2889.054,1725.761 2886.867,1728.92C2884.679,1732.08 2883.18,1734.956 2882.37,1737.549L2938.76,1737.549L2926.364,1744.355Z" style="fill-rule:nonzero;"/>
                <path d="M3037.442,1810.71L3061.262,1641.297L3175.986,1641.297L3171.368,1675.326L3094.804,1675.326L3090.429,1706.437L3157.028,1706.437L3152.166,1740.466L3085.568,1740.466L3075.603,1810.71L3037.442,1810.71Z" style="fill-rule:nonzero;"/>
                <path d="M3215.605,1813.384C3201.345,1813.384 3191.015,1809.738 3184.615,1802.446C3178.214,1795.154 3175.014,1785.837 3175.014,1774.494C3175.014,1772.712 3175.095,1770.97 3175.257,1769.268C3175.419,1767.567 3175.581,1765.825 3175.743,1764.043L3185.952,1690.882L3222.654,1690.882L3213.174,1758.452C3213.012,1760.073 3212.85,1761.693 3212.688,1763.313C3212.526,1764.934 3212.445,1766.311 3212.445,1767.445C3212.445,1771.496 3213.417,1774.859 3215.362,1777.532C3217.306,1780.206 3221.357,1781.543 3227.515,1781.543C3235.131,1781.543 3240.964,1779.193 3245.015,1774.494C3249.066,1769.795 3252.064,1763.475 3254.008,1755.535C3255.953,1747.595 3257.573,1738.926 3258.87,1729.528L3264.217,1690.882L3300.919,1690.882L3284.148,1810.71L3250.119,1810.71L3250.849,1784.46L3254.495,1789.564C3249.309,1798.962 3243.314,1805.282 3236.508,1808.522C3229.702,1811.763 3222.735,1813.384 3215.605,1813.384Z" style="fill-rule:nonzero;"/>
                <path d="M3361.684,1813.384C3355.202,1813.384 3349.166,1812.29 3343.576,1810.102C3337.986,1807.915 3333.448,1804.39 3329.965,1799.529C3326.481,1794.668 3324.739,1788.186 3324.739,1780.084C3324.739,1778.464 3324.82,1776.722 3324.982,1774.859C3325.144,1772.995 3325.468,1770.281 3325.954,1766.716L3340.052,1665.846L3379.913,1646.159L3363.628,1763.07C3363.466,1764.691 3363.264,1766.473 3363.021,1768.418C3362.778,1770.362 3362.656,1772.226 3362.656,1774.008C3362.656,1777.087 3363.385,1779.436 3364.844,1781.057C3366.302,1782.677 3368.895,1783.487 3372.622,1783.487C3374.89,1783.487 3377.078,1783.244 3379.184,1782.758C3381.291,1782.272 3383.64,1781.705 3386.233,1781.057L3382.101,1810.224C3378.536,1811.358 3375.052,1812.168 3371.649,1812.654C3368.246,1813.141 3364.925,1813.384 3361.684,1813.384ZM3312.829,1719.32L3316.961,1690.882L3398.872,1690.882L3394.983,1719.32L3312.829,1719.32Z" style="fill-rule:nonzero;"/>
                <path d="M3448.456,1813.384C3434.197,1813.384 3423.867,1809.738 3417.466,1802.446C3411.065,1795.154 3407.865,1785.837 3407.865,1774.494C3407.865,1772.712 3407.946,1770.97 3408.108,1769.268C3408.27,1767.567 3408.432,1765.825 3408.594,1764.043L3418.803,1690.882L3455.505,1690.882L3446.026,1758.452C3445.864,1760.073 3445.701,1761.693 3445.539,1763.313C3445.377,1764.934 3445.296,1766.311 3445.296,1767.445C3445.296,1771.496 3446.269,1774.859 3448.213,1777.532C3450.158,1780.206 3454.209,1781.543 3460.366,1781.543C3467.982,1781.543 3473.815,1779.193 3477.866,1774.494C3481.917,1769.795 3484.915,1763.475 3486.86,1755.535C3488.804,1747.595 3490.424,1738.926 3491.721,1729.528L3497.068,1690.882L3533.77,1690.882L3516.999,1810.71L3482.971,1810.71L3483.7,1784.46L3487.346,1789.564C3482.16,1798.962 3476.165,1805.282 3469.359,1808.522C3462.554,1811.763 3455.586,1813.384 3448.456,1813.384Z" style="fill-rule:nonzero;"/>
                <path d="M3543.492,1810.71L3560.507,1690.882L3595.021,1690.882L3592.834,1723.695L3588.459,1722.722C3589.593,1715.917 3592.104,1709.921 3595.993,1704.736C3599.882,1699.551 3604.5,1695.5 3609.848,1692.583C3615.195,1689.666 3620.542,1688.208 3625.89,1688.208C3630.589,1688.208 3634.802,1688.897 3638.529,1690.274C3642.256,1691.651 3646.145,1693.717 3650.196,1696.472L3629.536,1728.556C3628.077,1727.422 3626.011,1726.49 3623.338,1725.761C3620.664,1725.031 3618.112,1724.667 3615.681,1724.667C3609.362,1724.667 3604.257,1726.49 3600.368,1730.136C3596.479,1733.782 3593.522,1738.521 3591.497,1744.355C3589.471,1750.188 3587.972,1756.508 3587,1763.313L3580.194,1810.71L3543.492,1810.71Z" style="fill-rule:nonzero;"/>
                <path d="M3701.481,1813.384C3688.194,1813.384 3677.54,1810.913 3669.519,1805.97C3661.498,1801.028 3655.705,1794.547 3652.14,1786.526C3648.575,1778.505 3646.793,1769.876 3646.793,1760.64C3646.793,1751.727 3648.211,1742.977 3651.046,1734.389C3653.882,1725.801 3658.095,1718.023 3663.685,1711.056C3669.276,1704.088 3676.203,1698.538 3684.467,1694.406C3692.731,1690.274 3702.372,1688.208 3713.391,1688.208C3724.734,1688.208 3734.132,1690.436 3741.586,1694.892C3749.04,1699.348 3754.671,1705.506 3758.479,1713.365C3762.287,1721.224 3764.191,1730.338 3764.191,1740.709C3764.191,1745.246 3763.907,1749.297 3763.34,1752.862C3762.773,1756.427 3762.003,1760.316 3761.031,1764.529L3682.037,1764.529C3682.037,1765.339 3682.077,1766.109 3682.158,1766.838C3682.239,1767.567 3682.361,1768.337 3682.523,1769.147C3683.657,1773.684 3686.25,1776.965 3690.301,1778.991C3694.352,1781.016 3699.051,1782.029 3704.398,1782.029C3709.583,1782.029 3714.971,1781.219 3720.561,1779.598C3726.152,1777.978 3731.459,1775.871 3736.482,1773.279L3751.795,1798.314C3745.313,1802.365 3737.819,1805.889 3729.312,1808.887C3720.805,1811.885 3711.528,1813.384 3701.481,1813.384ZM3729.676,1744.355C3730.162,1742.734 3730.527,1741.114 3730.77,1739.493C3731.013,1737.873 3731.135,1736.334 3731.135,1734.875C3731.135,1731.797 3730.567,1728.961 3729.433,1726.368C3728.299,1723.776 3726.435,1721.629 3723.843,1719.927C3721.25,1718.226 3717.685,1717.375 3713.148,1717.375C3707.639,1717.375 3702.98,1718.509 3699.172,1720.778C3695.364,1723.046 3692.367,1725.761 3690.179,1728.92C3687.991,1732.08 3686.493,1734.956 3685.682,1737.549L3742.072,1737.549L3729.676,1744.355Z" style="fill-rule:nonzero;"/>
                <path d="M3896.658,1813.384C3885.802,1813.384 3876.282,1811.075 3868.099,1806.456C3859.916,1801.838 3853.515,1795.357 3848.897,1787.012C3844.279,1778.667 3841.97,1769.066 3841.97,1758.209C3841.97,1748.649 3843.712,1739.656 3847.196,1731.229C3850.679,1722.803 3855.541,1715.35 3861.779,1708.868C3868.018,1702.386 3875.35,1697.323 3883.776,1693.677C3892.202,1690.031 3901.357,1688.208 3911.242,1688.208C3922.26,1688.208 3931.861,1690.517 3940.044,1695.135C3948.227,1699.753 3954.587,1706.154 3959.125,1714.337C3963.662,1722.52 3965.93,1732.04 3965.93,1742.896C3965.93,1752.457 3964.148,1761.49 3960.583,1769.997C3957.018,1778.505 3952.116,1785.999 3945.878,1792.481C3939.639,1798.962 3932.307,1804.066 3923.881,1807.793C3915.455,1811.52 3906.381,1813.384 3896.658,1813.384ZM3900.061,1781.3C3904.76,1781.3 3908.933,1780.246 3912.579,1778.14C3916.225,1776.033 3919.303,1773.238 3921.815,1769.754C3924.326,1766.271 3926.23,1762.422 3927.527,1758.209C3928.823,1753.996 3929.471,1749.783 3929.471,1745.57C3929.471,1738.926 3927.81,1733.052 3924.489,1727.948C3921.167,1722.844 3915.698,1720.292 3908.082,1720.292C3903.221,1720.292 3898.927,1721.305 3895.2,1723.33C3891.473,1725.356 3888.394,1728.11 3885.964,1731.594C3883.533,1735.078 3881.67,1738.886 3880.373,1743.018C3879.077,1747.15 3878.429,1751.322 3878.429,1755.535C3878.429,1762.179 3880.171,1768.134 3883.655,1773.4C3887.138,1778.667 3892.607,1781.3 3900.061,1781.3Z" style="fill-rule:nonzero;"/>
                <path d="M3986.833,1810.71L3999.716,1719.32L3980.028,1719.32L3984.16,1690.882L4004.091,1690.882L4005.792,1679.215C4007.412,1668.52 4010.248,1660.216 4014.299,1654.301C4018.35,1648.387 4023.414,1644.295 4029.49,1642.027C4035.567,1639.758 4042.17,1638.624 4049.3,1638.624C4055.133,1638.624 4059.954,1639.191 4063.762,1640.325C4067.57,1641.459 4071.256,1642.837 4074.821,1644.457L4060.723,1671.437C4059.427,1670.627 4058.09,1670.019 4056.713,1669.614C4055.336,1669.209 4054.08,1669.006 4052.946,1669.006C4049.543,1669.006 4046.95,1670.221 4045.168,1672.652C4043.385,1675.083 4042.251,1677.999 4041.765,1681.402L4040.55,1690.882L4064.369,1690.882L4060.237,1719.32L4036.418,1719.32L4023.535,1810.71L3986.833,1810.71Z" style="fill-rule:nonzero;"/>
                <path d="M4129.023,1810.71L4152.843,1641.297L4191.003,1641.297L4172.045,1776.682L4241.56,1776.682L4236.699,1810.71L4129.023,1810.71Z" style="fill-rule:nonzero;"/>
                <path d="M4309.13,1813.384C4295.843,1813.384 4285.189,1810.913 4277.168,1805.97C4269.147,1801.028 4263.354,1794.547 4259.789,1786.526C4256.224,1778.505 4254.442,1769.876 4254.442,1760.64C4254.442,1751.727 4255.86,1742.977 4258.696,1734.389C4261.531,1725.801 4265.744,1718.023 4271.335,1711.056C4276.925,1704.088 4283.852,1698.538 4292.116,1694.406C4300.38,1690.274 4310.022,1688.208 4321.04,1688.208C4332.383,1688.208 4341.782,1690.436 4349.235,1694.892C4356.689,1699.348 4362.32,1705.506 4366.128,1713.365C4369.936,1721.224 4371.84,1730.338 4371.84,1740.709C4371.84,1745.246 4371.556,1749.297 4370.989,1752.862C4370.422,1756.427 4369.652,1760.316 4368.68,1764.529L4289.686,1764.529C4289.686,1765.339 4289.726,1766.109 4289.807,1766.838C4289.888,1767.567 4290.01,1768.337 4290.172,1769.147C4291.306,1773.684 4293.899,1776.965 4297.95,1778.991C4302.001,1781.016 4306.7,1782.029 4312.047,1782.029C4317.232,1782.029 4322.62,1781.219 4328.211,1779.598C4333.801,1777.978 4339.108,1775.871 4344.131,1773.279L4359.444,1798.314C4352.962,1802.365 4345.468,1805.889 4336.961,1808.887C4328.454,1811.885 4319.177,1813.384 4309.13,1813.384ZM4337.325,1744.355C4337.812,1742.734 4338.176,1741.114 4338.419,1739.493C4338.662,1737.873 4338.784,1736.334 4338.784,1734.875C4338.784,1731.797 4338.217,1728.961 4337.082,1726.368C4335.948,1723.776 4334.085,1721.629 4331.492,1719.927C4328.899,1718.226 4325.334,1717.375 4320.797,1717.375C4315.288,1717.375 4310.629,1718.509 4306.821,1720.778C4303.013,1723.046 4300.016,1725.761 4297.828,1728.92C4295.641,1732.08 4294.142,1734.956 4293.332,1737.549L4349.721,1737.549L4337.325,1744.355Z" style="fill-rule:nonzero;"/>
                <path d="M4429.931,1813.384C4420.695,1813.384 4412.876,1811.237 4406.476,1806.943C4400.075,1802.648 4395.255,1796.653 4392.014,1788.956C4388.773,1781.259 4387.153,1772.388 4387.153,1762.341C4387.153,1752.943 4388.57,1743.828 4391.406,1734.997C4394.242,1726.166 4398.252,1718.226 4403.438,1711.177C4408.623,1704.128 4414.821,1698.538 4422.032,1694.406C4429.242,1690.274 4437.223,1688.208 4445.973,1688.208C4451.969,1688.208 4457.559,1689.504 4462.744,1692.097C4467.929,1694.689 4472.021,1698.822 4475.019,1704.493C4478.016,1710.164 4479.11,1717.78 4478.3,1727.341L4472.71,1721.021L4479.272,1690.882L4513.058,1690.882L4496.286,1810.71L4462.258,1810.71L4463.716,1781.057L4472.467,1774.737C4468.902,1785.918 4464.648,1794.263 4459.706,1799.772C4454.764,1805.282 4449.7,1808.928 4444.515,1810.71C4439.329,1812.492 4434.468,1813.384 4429.931,1813.384ZM4442.084,1779.841C4447.269,1779.841 4451.766,1778.707 4455.574,1776.439C4459.382,1774.17 4462.542,1771.172 4465.053,1767.445C4467.565,1763.718 4469.428,1759.627 4470.644,1755.171C4471.859,1750.715 4472.467,1746.299 4472.467,1741.924C4472.467,1737.549 4471.778,1733.863 4470.401,1730.865C4469.023,1727.867 4466.998,1725.599 4464.324,1724.059C4461.65,1722.52 4458.288,1721.75 4454.237,1721.75C4449.052,1721.75 4444.555,1722.884 4440.747,1725.153C4436.939,1727.422 4433.78,1730.419 4431.268,1734.146C4428.756,1737.873 4426.893,1741.965 4425.678,1746.421C4424.462,1750.877 4423.855,1755.292 4423.855,1759.667C4423.855,1763.88 4424.543,1767.526 4425.921,1770.605C4427.298,1773.684 4429.364,1775.993 4432.119,1777.532C4434.873,1779.072 4438.195,1779.841 4442.084,1779.841Z" style="fill-rule:nonzero;"/>
                <path d="M4568.475,1813.384C4559.239,1813.384 4551.42,1811.237 4545.02,1806.943C4538.619,1802.648 4533.799,1796.653 4530.558,1788.956C4527.317,1781.259 4525.697,1772.388 4525.697,1762.341C4525.697,1752.943 4527.115,1743.828 4529.95,1734.997C4532.786,1726.166 4536.796,1718.226 4541.982,1711.177C4547.167,1704.128 4553.365,1698.538 4560.576,1694.406C4567.786,1690.274 4575.767,1688.208 4584.517,1688.208C4590.513,1688.208 4596.103,1689.504 4601.288,1692.097C4606.473,1694.689 4610.565,1698.822 4613.563,1704.493C4616.56,1710.164 4617.654,1717.78 4616.844,1727.341L4611.254,1721.021L4622.191,1641.297L4658.65,1641.297L4634.83,1810.71L4600.802,1810.71L4602.26,1781.057L4611.011,1774.737C4607.446,1785.918 4603.192,1794.263 4598.25,1799.772C4593.308,1805.282 4588.244,1808.928 4583.059,1810.71C4577.873,1812.492 4573.012,1813.384 4568.475,1813.384ZM4582.816,1779.841C4587.029,1779.841 4590.837,1779.031 4594.239,1777.411C4597.642,1775.79 4600.6,1773.481 4603.111,1770.484C4605.623,1767.486 4607.527,1763.84 4608.823,1759.546C4610.119,1755.252 4610.768,1750.431 4610.768,1745.084C4610.768,1740.061 4609.998,1735.848 4608.458,1732.445C4606.919,1729.042 4604.651,1726.409 4601.653,1724.545C4598.655,1722.682 4594.969,1721.75 4590.594,1721.75C4586.381,1721.75 4582.573,1722.56 4579.17,1724.181C4575.767,1725.801 4572.81,1728.11 4570.298,1731.108C4567.786,1734.106 4565.883,1737.752 4564.586,1742.046C4563.29,1746.34 4562.642,1751.16 4562.642,1756.508C4562.642,1761.531 4563.411,1765.784 4564.951,1769.268C4566.49,1772.752 4568.799,1775.385 4571.878,1777.168C4574.957,1778.95 4578.603,1779.841 4582.816,1779.841Z" style="fill-rule:nonzero;"/>
                <path d="M4718.443,1813.384C4705.156,1813.384 4694.502,1810.913 4686.481,1805.97C4678.46,1801.028 4672.667,1794.547 4669.102,1786.526C4665.537,1778.505 4663.755,1769.876 4663.755,1760.64C4663.755,1751.727 4665.172,1742.977 4668.008,1734.389C4670.844,1725.801 4675.057,1718.023 4680.647,1711.056C4686.238,1704.088 4693.165,1698.538 4701.429,1694.406C4709.693,1690.274 4719.334,1688.208 4730.353,1688.208C4741.696,1688.208 4751.094,1690.436 4758.548,1694.892C4766.002,1699.348 4771.633,1705.506 4775.44,1713.365C4779.248,1721.224 4781.152,1730.338 4781.152,1740.709C4781.152,1745.246 4780.869,1749.297 4780.302,1752.862C4779.735,1756.427 4778.965,1760.316 4777.993,1764.529L4698.998,1764.529C4698.998,1765.339 4699.039,1766.109 4699.12,1766.838C4699.201,1767.567 4699.322,1768.337 4699.484,1769.147C4700.619,1773.684 4703.211,1776.965 4707.262,1778.991C4711.313,1781.016 4716.012,1782.029 4721.36,1782.029C4726.545,1782.029 4731.933,1781.219 4737.523,1779.598C4743.114,1777.978 4748.42,1775.871 4753.444,1773.279L4768.756,1798.314C4762.275,1802.365 4754.78,1805.889 4746.273,1808.887C4737.766,1811.885 4728.489,1813.384 4718.443,1813.384ZM4746.638,1744.355C4747.124,1742.734 4747.489,1741.114 4747.732,1739.493C4747.975,1737.873 4748.096,1736.334 4748.096,1734.875C4748.096,1731.797 4747.529,1728.961 4746.395,1726.368C4745.261,1723.776 4743.397,1721.629 4740.804,1719.927C4738.212,1718.226 4734.647,1717.375 4730.11,1717.375C4724.601,1717.375 4719.942,1718.509 4716.134,1720.778C4712.326,1723.046 4709.328,1725.761 4707.141,1728.92C4704.953,1732.08 4703.454,1734.956 4702.644,1737.549L4759.034,1737.549L4746.638,1744.355Z" style="fill-rule:nonzero;"/>
                <path d="M4793.305,1810.71L4810.32,1690.882L4844.834,1690.882L4842.646,1723.695L4838.271,1722.722C4839.406,1715.917 4841.917,1709.921 4845.806,1704.736C4849.695,1699.551 4854.313,1695.5 4859.661,1692.583C4865.008,1689.666 4870.355,1688.208 4875.703,1688.208C4880.402,1688.208 4884.615,1688.897 4888.342,1690.274C4892.069,1691.651 4895.958,1693.717 4900.009,1696.472L4879.348,1728.556C4877.89,1727.422 4875.824,1726.49 4873.15,1725.761C4870.477,1725.031 4867.925,1724.667 4865.494,1724.667C4859.175,1724.667 4854.07,1726.49 4850.181,1730.136C4846.292,1733.782 4843.335,1738.521 4841.31,1744.355C4839.284,1750.188 4837.785,1756.508 4836.813,1763.313L4830.007,1810.71L4793.305,1810.71Z" style="fill-rule:nonzero;"/>
                <path d="M4943.759,1813.384C4934.199,1813.384 4925.975,1811.966 4919.089,1809.13C4912.202,1806.294 4906.531,1802.973 4902.075,1799.165C4897.618,1795.357 4894.094,1791.994 4891.501,1789.078L4917.509,1769.147C4920.912,1774.17 4925.125,1778.14 4930.148,1781.057C4935.171,1783.973 4940.275,1785.432 4945.461,1785.432C4949.188,1785.432 4952.185,1784.986 4954.454,1784.095C4956.722,1783.204 4958.424,1782.029 4959.558,1780.571C4960.692,1779.112 4961.26,1777.573 4961.26,1775.952C4961.26,1773.846 4960.49,1772.104 4958.951,1770.727C4957.411,1769.349 4955.386,1768.175 4952.874,1767.202C4950.362,1766.23 4947.648,1765.339 4944.732,1764.529C4941.005,1763.394 4936.913,1762.017 4932.457,1760.397C4928.001,1758.776 4923.707,1756.67 4919.575,1754.077C4915.443,1751.484 4912.081,1748.082 4909.488,1743.869C4906.895,1739.656 4905.599,1734.389 4905.599,1728.07C4905.599,1720.292 4907.746,1713.405 4912.04,1707.41C4916.334,1701.414 4922.249,1696.715 4929.783,1693.312C4937.318,1689.909 4946.028,1688.208 4955.912,1688.208C4966.607,1688.208 4975.803,1690.233 4983.5,1694.284C4991.196,1698.335 4996.989,1703.845 5000.878,1710.812L4976.329,1727.097C4973.899,1723.371 4970.82,1720.656 4967.093,1718.955C4963.366,1717.254 4959.396,1716.403 4955.183,1716.403C4951.618,1716.403 4948.296,1717.051 4945.218,1718.347C4942.139,1719.644 4940.6,1721.669 4940.6,1724.424C4940.6,1726.368 4941.734,1727.948 4944.002,1729.163C4946.271,1730.379 4950.241,1731.716 4955.912,1733.174C4962.556,1734.794 4969.078,1736.941 4975.479,1739.615C4981.879,1742.289 4987.186,1746.016 4991.399,1750.796C4995.612,1755.576 4997.719,1762.098 4997.719,1770.362C4997.719,1778.788 4995.45,1786.242 4990.913,1792.724C4986.376,1799.205 4980.097,1804.269 4972.076,1807.915C4964.055,1811.561 4954.616,1813.384 4943.759,1813.384Z" style="fill-rule:nonzero;"/>
                <path d="M5012.788,1810.71L5036.608,1641.297L5073.31,1641.297L5062.372,1719.076L5057.511,1718.104C5060.59,1710.002 5064.438,1703.804 5069.057,1699.51C5073.675,1695.216 5078.617,1692.259 5083.883,1690.638C5089.15,1689.018 5094.132,1688.208 5098.831,1688.208C5111.795,1688.208 5121.801,1691.489 5128.849,1698.052C5135.898,1704.614 5139.422,1713.405 5139.422,1724.424C5139.422,1725.558 5139.382,1726.773 5139.301,1728.07C5139.22,1729.366 5139.098,1730.662 5138.936,1731.959L5127.755,1810.71L5091.053,1810.71L5100.533,1743.626C5100.857,1741.843 5101.059,1740.263 5101.14,1738.886C5101.221,1737.509 5101.262,1736.253 5101.262,1735.118C5101.262,1729.771 5100.128,1725.923 5097.859,1723.573C5095.591,1721.224 5091.945,1720.049 5086.921,1720.049C5078.657,1720.049 5072.095,1723.006 5067.234,1728.92C5062.372,1734.835 5059.051,1743.788 5057.268,1755.778L5049.49,1810.71L5012.788,1810.71Z" style="fill-rule:nonzero;"/>
                <path d="M5152.548,1810.71L5169.319,1690.882L5206.021,1690.882L5189.25,1810.71L5152.548,1810.71ZM5171.506,1674.353L5176.124,1641.297L5213.556,1641.297L5208.937,1674.353L5171.506,1674.353Z" style="fill-rule:nonzero;"/>
                <path d="M5208.694,1860.294L5232.514,1690.882L5266.543,1690.882L5265.084,1720.535L5256.091,1726.854C5259.818,1715.512 5264.112,1707.126 5268.973,1701.698C5273.834,1696.269 5278.898,1692.664 5284.164,1690.882C5289.431,1689.099 5294.332,1688.208 5298.87,1688.208C5308.268,1688.208 5316.127,1690.355 5322.446,1694.649C5328.766,1698.943 5333.546,1704.939 5336.787,1712.635C5340.028,1720.332 5341.648,1729.204 5341.648,1739.25C5341.648,1748.649 5340.352,1757.763 5337.759,1766.595C5335.166,1775.426 5331.44,1783.366 5326.578,1790.414C5321.717,1797.463 5315.803,1803.054 5308.835,1807.186C5301.867,1811.318 5294.008,1813.384 5285.258,1813.384C5279.425,1813.384 5273.875,1812.087 5268.609,1809.495C5263.342,1806.902 5259.048,1802.73 5255.726,1796.977C5252.405,1791.225 5250.663,1783.649 5250.501,1774.251L5256.091,1780.571L5245.153,1860.294L5208.694,1860.294ZM5276.751,1779.841C5280.964,1779.841 5284.772,1779.031 5288.175,1777.411C5291.578,1775.79 5294.535,1773.481 5297.047,1770.484C5299.558,1767.486 5301.462,1763.84 5302.758,1759.546C5304.055,1755.252 5304.703,1750.431 5304.703,1745.084C5304.703,1740.061 5303.933,1735.807 5302.394,1732.323C5300.854,1728.839 5298.586,1726.206 5295.588,1724.424C5292.59,1722.641 5288.904,1721.75 5284.529,1721.75C5280.316,1721.75 5276.508,1722.56 5273.105,1724.181C5269.702,1725.801 5266.745,1728.11 5264.234,1731.108C5261.722,1734.106 5259.818,1737.752 5258.522,1742.046C5257.225,1746.34 5256.577,1751.16 5256.577,1756.508C5256.577,1761.369 5257.347,1765.541 5258.886,1769.025C5260.426,1772.509 5262.735,1775.183 5265.813,1777.046C5268.892,1778.91 5272.538,1779.841 5276.751,1779.841Z" style="fill-rule:nonzero;"/>
            </g>
            <g transform="matrix(1.031498,0.003317,-0.003421,0.999994,-74.205683,-208.388594)">
                <path d="M364.048,2000.583L363.952,1971.417L2172.952,1965.417L2173.048,1994.583L364.048,2000.583Z" style="fill:rgb(242,13,13);"/>
            </g>
        </g>
    </g>
</svg>
